<svg width="562" height="539" viewBox="0 0 562 539" fill="none" xmlns="http://www.w3.org/2000/svg">
<g clip-path="url(#clip0)">
<path d="M406.598 358.846H406.599C447.814 358.846 487.34 375.193 516.484 404.29C545.627 433.387 562 472.851 562 514.001V516.403H251.197V514.001C251.197 493.626 255.217 473.45 263.026 454.626C270.836 435.802 282.283 418.697 296.713 404.29C311.144 389.883 328.275 378.454 347.129 370.657C365.983 362.859 386.191 358.846 406.598 358.846V358.846Z" fill="#004754"/>
<path d="M123.642 88.6987H74.8555V135.859H123.642V88.6987Z" fill="url(#paint0_linear)"/>
<path d="M122.802 89.5107H75.6953V135.047H122.802V89.5107Z" fill="#6EEED7"/>
<path d="M190.272 129.352H141.485V176.512H190.272V129.352Z" fill="url(#paint1_linear)"/>
<path d="M189.432 130.165H142.325V175.701H189.432V130.165Z" fill="#2E2B55"/>
<path d="M264.304 77.6113H215.518V124.771H264.304V77.6113Z" fill="url(#paint2_linear)"/>
<path d="M263.465 78.4233H216.358V123.959H263.465V78.4233Z" fill="#6EEED7"/>
<path d="M189.244 0.205078H140.457V47.3652H189.244V0.205078Z" fill="url(#paint3_linear)"/>
<path d="M188.403 1.01758H141.297V46.5536H188.403V1.01758Z" fill="#6ED7EE"/>
<path d="M115.417 0H66.6299V47.1601H115.417V0Z" fill="url(#paint4_linear)"/>
<path d="M114.576 0.812012H67.4697V46.348H114.576V0.812012Z" fill="#2E2B55"/>
<path d="M48.7866 40.6538H0V87.8139H48.7866V40.6538Z" fill="url(#paint5_linear)"/>
<path d="M47.9463 41.4658H0.839844V87.0018H47.9463V41.4658Z" fill="#6ED7EE"/>
<path d="M483.462 174.395C482.462 170.302 480.558 166.493 479.192 162.507C477.294 156.743 476.318 150.716 476.301 144.649C476.283 134.793 478.036 124.733 479.62 114.952C480.937 106.813 482.069 98.3597 481.934 90.1031C481.916 81.5068 480.598 73.095 476.74 65.4439C472.479 56.9925 464.504 49.7529 455.049 49.1186C446.063 48.5158 437.77 53.7846 428.875 55.196C420.106 56.5875 411.147 54.1738 402.291 54.8233C393.844 55.4673 385.84 58.8547 379.502 64.4679C374.638 68.801 370.786 74.7695 370.712 81.2774C370.709 81.521 370.728 81.7469 370.734 81.983C370.728 82.1392 370.714 82.2941 370.712 82.4509C370.599 92.4305 378.183 96.0072 386.916 97.4894C386.217 102.113 386.448 106.828 387.593 111.362C388.739 115.895 390.778 120.155 393.59 123.894C396.402 127.632 399.932 130.774 403.973 133.136C408.015 135.498 412.487 137.033 417.128 137.652C417.551 138.412 417.962 139.191 418.363 139.99C418.461 141.219 418.525 142.45 418.538 143.686C418.412 150.392 416.961 157.007 414.269 163.153C412.486 164.282 410.568 165.184 408.56 165.838L386.227 191.655C383.968 193.773 381.987 196.168 380.331 198.783C379.586 199.201 378.838 199.608 378.085 200.004C378.517 200.117 378.949 200.23 379.38 200.343C379.344 200.407 379.308 200.473 379.271 200.537C378.876 200.751 378.482 200.969 378.085 201.177L378.809 201.367C376.272 205.946 374.98 211.109 375.063 216.341C375.019 221.245 376.232 226.078 378.587 230.382C380.112 233.348 381.432 236.416 382.538 239.562L375.061 251.505L349.807 288.907L330.396 292.579C326.05 292.051 321.656 292.048 317.309 292.572L321.315 285.031C321.426 284.805 321.491 284.558 321.507 284.307C321.523 284.055 321.489 283.802 321.408 283.563C321.326 283.325 321.198 283.104 321.031 282.915C320.863 282.726 320.661 282.571 320.434 282.46C320.207 282.349 319.96 282.283 319.708 282.267C319.455 282.251 319.203 282.285 318.963 282.367C318.724 282.449 318.503 282.577 318.314 282.743C318.124 282.91 317.969 283.113 317.858 283.339L312.515 293.398C306.464 294.77 300.132 297.58 295.722 303.141C290.933 309.181 295.768 311.225 302.85 311.592L302.113 312.98C301.952 313.31 301.889 313.678 301.931 314.042C301.973 314.406 302.118 314.75 302.35 315.034C301.442 315.283 300.473 315.566 299.465 315.883H283.315V323.52C278.687 326.775 274.713 331 272.691 336.437C259.801 347.348 258.698 368.271 258.698 368.271L217.559 488.558C217.559 488.558 216.665 489.896 215.32 492.062C204.016 499.219 181.494 527.373 187.403 539V539L212.21 526.433C212.615 526.603 212.857 526.697 212.857 526.697L214.664 525.189L264.638 499.873L253.543 477.509L252.007 478.081C251.555 475.835 251.739 473.757 253.408 472.715C256.135 471.014 273.486 437.938 287.584 410.448C292.512 425.145 302.788 459.321 297.966 475.929L296.127 477.299C287.404 485.465 271.965 521.454 281.302 531.399V531.399L306.377 507.928L325.695 490.318L326.065 489.499L344.486 472.256L327.566 453.886L324.924 455.853C323.393 451.34 320.223 441.124 321.581 437.509C322.968 433.815 326.53 397.494 320.973 372.576L324.956 372.31C338.782 390.334 355.495 406.368 360.369 407.584C360.848 407.698 361.344 407.716 361.83 407.636C371.299 409.155 388.578 371.205 388.578 371.205H436.769C479.194 365.154 472.173 331.091 463.642 310.393C463.904 310.516 464.156 310.641 464.391 310.768C464.391 310.768 464.291 310.312 464.124 309.459C464.212 309.504 464.306 309.549 464.391 309.595C461.83 296.577 460.513 283.345 460.457 270.078C460.425 260.842 461.258 251.623 462.946 242.542C466.295 248.404 471.475 253.355 478.049 254.176C481.606 232.893 483.722 211.394 484.382 189.827C484.429 188.304 484.462 186.774 484.457 185.246C484.578 181.602 484.244 177.957 483.462 174.395V174.395ZM359.193 308.065L361.704 305.222C373.293 303.633 385.165 301.779 393.085 299.96C390.349 303.641 386.854 306.694 382.837 308.913C376.819 308.541 368.401 308.14 359.193 308.065ZM388.94 274.385L386.227 282.017L381.391 282.932L388.94 274.385ZM307.184 311.634C311.687 311.47 316.178 311.059 320.636 310.401C320.547 310.474 320.46 310.549 320.372 310.624C316.751 311.253 313.19 312.184 309.726 313.409L309.726 313.409C309.726 313.409 308.234 313.624 305.84 314.164L307.184 311.634Z" fill="url(#paint6_linear)"/>
<path d="M304.242 314.725C304.024 314.618 303.829 314.469 303.668 314.287C303.508 314.105 303.384 313.893 303.306 313.663C303.227 313.434 303.194 313.191 303.21 312.949C303.225 312.707 303.288 312.47 303.395 312.252L318.534 283.751C318.641 283.533 318.79 283.339 318.973 283.178C319.155 283.018 319.367 282.895 319.597 282.816C319.827 282.738 320.07 282.705 320.313 282.72C320.556 282.736 320.793 282.799 321.011 282.905V282.905C321.229 283.012 321.424 283.161 321.585 283.343C321.746 283.525 321.869 283.737 321.947 283.967C322.026 284.196 322.059 284.439 322.043 284.681C322.028 284.923 321.965 285.16 321.858 285.378L306.719 313.879C306.612 314.097 306.463 314.292 306.28 314.452C306.098 314.612 305.886 314.735 305.656 314.814C305.426 314.892 305.183 314.925 304.94 314.91C304.698 314.894 304.46 314.831 304.242 314.725Z" fill="#4D8AF0"/>
<path d="M310.716 312.664C310.716 312.664 269.562 318.588 274.082 346.797L287.079 399.267C287.079 399.267 306.292 450.609 298.946 470.355C298.946 470.355 291.6 501.95 284.254 500.822C276.908 499.693 300.076 506.463 300.076 506.463L326.07 482.767L333.982 465.278C333.982 465.278 336.242 460.2 326.07 451.737C326.07 451.737 320.419 436.504 322.115 431.99C323.81 427.477 328.885 372.295 315.046 353.34L310.716 312.664Z" fill="#BE7C5E"/>
<path opacity="0.1" d="M310.716 312.664C310.716 312.664 269.562 318.588 274.082 346.797L287.079 399.267C287.079 399.267 306.292 450.609 298.946 470.355C298.946 470.355 291.6 501.95 284.254 500.822C276.908 499.693 300.076 506.463 300.076 506.463L326.07 482.767L333.982 465.278C333.982 465.278 336.242 460.2 326.07 451.737C326.07 451.737 320.419 436.504 322.115 431.99C323.81 427.477 328.885 372.295 315.046 353.34L310.716 312.664Z" fill="black"/>
<path d="M283.385 522.268L344.138 465.401L327.869 447.737L297.64 470.249C289.251 478.101 274.406 512.706 283.385 522.268L283.385 522.268Z" fill="#F5F5F5"/>
<path d="M389.925 308.996C389.925 308.996 328.895 303.355 307.422 314.074C307.422 314.074 305.727 323.101 314.768 333.821C323.81 344.54 389.925 308.996 389.925 308.996Z" fill="#333333"/>
<path opacity="0.3" d="M389.925 308.996C389.925 308.996 328.895 303.355 307.422 314.074C307.422 314.074 305.727 323.101 314.768 333.821C323.81 344.54 389.925 308.996 389.925 308.996Z" fill="black"/>
<path d="M344.071 315.043H285.32V323.235H344.071V315.043Z" fill="#E0E0E0"/>
<path d="M322.68 325.923C322.68 325.923 289.905 323.666 276.343 333.821C262.781 343.977 261.65 365.416 261.65 365.416L222.094 481.075C222.094 481.075 209.797 499.451 207.967 510.413C207.402 513.798 217.574 517.748 217.574 517.748L252.044 488.974L258.825 479.383C258.825 479.383 252.044 468.663 256.565 465.842C261.085 463.021 307.422 370.494 307.422 370.494L366.757 366.544L322.68 325.923Z" fill="#BE7C5E"/>
<path opacity="0.1" d="M449.824 294.328C449.824 294.328 491.076 359.774 431.742 368.237H385.405C385.405 368.237 368.452 405.473 359.411 403.217C350.369 400.96 298.946 345.669 306.857 325.922L379.754 308.997C379.754 308.997 393.316 302.791 394.446 290.378L449.824 294.328Z" fill="black"/>
<path d="M450.954 294.328C450.954 294.328 492.206 359.774 432.872 368.237H386.534C386.534 368.237 369.582 405.473 360.54 403.217C351.499 400.96 300.076 345.669 307.987 325.922L380.883 308.997C380.883 308.997 394.446 302.791 395.576 290.378L450.954 294.328Z" fill="#333333"/>
<path d="M193.098 529.577L267.362 491.955L256.693 470.451L221.362 483.619C211.108 488.813 187.158 517.888 193.098 529.577V529.577Z" fill="#F5F5F5"/>
<path d="M387.665 230.574L373.538 253.141L339.632 303.354C339.632 303.354 311.943 304.483 315.334 326.486C318.724 348.49 351.499 315.203 351.499 315.203L406.313 253.141L387.665 230.574Z" fill="#BE7C5E"/>
<path opacity="0.1" d="M387.665 230.574L373.538 253.141L339.632 303.354C339.632 303.354 311.943 304.483 315.334 326.486C318.724 348.49 351.499 315.203 351.499 315.203L406.313 253.141L387.665 230.574Z" fill="black"/>
<path d="M418.462 143.971C437.187 143.971 452.367 128.815 452.367 110.119C452.367 91.4234 437.187 76.2676 418.462 76.2676C399.737 76.2676 384.557 91.4234 384.557 110.119C384.557 128.815 399.737 143.971 418.462 143.971Z" fill="#BE7C5E"/>
<path d="M401.792 127.891C401.792 127.891 431.742 154.972 414.789 182.618C397.836 210.263 456.605 163.999 456.605 163.999C456.605 163.999 436.262 130.148 440.783 109.837L401.792 127.891Z" fill="#BE7C5E"/>
<path opacity="0.1" d="M424.395 156.101C424.395 156.101 416.484 168.513 405.747 171.898L384.274 196.723C384.274 196.723 366.191 212.52 376.928 232.831C387.664 253.142 393.88 303.355 393.88 303.355C393.88 303.355 446.999 303.355 459.43 310.125C459.43 310.125 448.694 261.04 463.386 226.625C478.078 192.209 452.084 144.817 452.084 144.817L424.395 156.101Z" fill="black"/>
<path d="M424.395 154.972C424.395 154.972 416.484 167.385 405.747 170.77L384.274 195.594C384.274 195.594 366.191 211.392 376.928 231.702C387.664 252.013 393.88 302.226 393.88 302.226C393.88 302.226 446.999 302.226 459.43 308.997C459.43 308.997 448.694 259.912 463.386 225.496C478.078 191.081 452.084 143.688 452.084 143.688L424.395 154.972Z" fill="#F55F44"/>
<path d="M446.433 211.391C446.433 211.391 407.442 292.071 398.966 297.149C390.49 302.226 326.07 308.997 326.07 308.997C326.07 308.997 286.514 316.331 297.25 302.79C307.987 289.25 330.59 292.635 330.59 292.635L384.274 282.48L415.353 195.03L446.433 211.391Z" fill="#BE7C5E"/>
<path opacity="0.1" d="M428.916 173.027C428.916 173.027 397.836 191.645 404.052 208.571C404.052 208.571 439.653 203.493 452.085 227.189C452.085 227.189 471.863 205.185 456.606 181.489C456.606 181.489 448.129 166.256 428.916 173.027Z" fill="black"/>
<path d="M428.916 171.898C428.916 171.898 397.836 190.516 404.052 207.442C404.052 207.442 439.653 202.364 452.085 226.061C452.085 226.061 471.863 204.057 456.606 180.361C456.606 180.361 448.129 165.128 428.916 171.898Z" fill="#F55F44"/>
<path opacity="0.1" d="M403.141 106.612C403.646 106.588 404.151 106.667 404.624 106.842C405.098 107.017 405.532 107.285 405.9 107.631C406.267 107.978 406.561 108.394 406.764 108.856C406.968 109.318 407.075 109.816 407.082 110.32C408.494 115.719 409.906 121.117 411.319 126.516C413.333 134.215 415.362 142.018 415.357 149.976C415.342 173.513 397.32 193.813 376.446 204.749L397.81 210.352C399.897 211.05 402.103 211.323 404.298 211.156C406.109 210.809 407.831 210.1 409.361 209.07C418.443 203.516 424.956 194.466 429.26 184.739C433.564 175.012 435.854 164.539 438.119 154.149C445.165 166.634 449.496 180.462 450.83 194.731C452.265 210.228 450.23 226.49 456.232 240.853C459.204 247.967 464.903 254.752 472.564 255.71C475.984 235.245 478.019 214.573 478.653 193.836C478.793 189.244 478.859 184.589 477.768 180.126C476.807 176.19 474.976 172.528 473.663 168.695C468.545 153.755 471.551 137.428 474.074 121.841C476.597 106.254 478.416 89.4689 471.305 75.3657C467.208 67.2396 459.54 60.2784 450.448 59.6685C441.808 59.0889 433.834 64.155 425.281 65.5121C416.849 66.8501 408.235 64.5292 399.72 65.1537C391.598 65.773 383.902 69.0301 377.808 74.4274C373.131 78.5937 369.427 84.3326 369.356 90.5902C369.165 107.431 391.763 105.318 403.141 106.612Z" fill="#333333"/>
<path d="M403.141 105.484C403.646 105.46 404.151 105.538 404.624 105.713C405.098 105.888 405.532 106.157 405.9 106.503C406.267 106.849 406.561 107.266 406.764 107.727C406.968 108.189 407.075 108.687 407.082 109.192C408.494 114.59 409.906 119.989 411.319 125.387C413.333 133.087 415.362 140.89 415.357 148.848C415.342 172.384 397.32 192.685 376.446 203.621L397.81 209.224C399.897 209.921 402.103 210.194 404.298 210.027C406.109 209.681 407.831 208.971 409.361 207.942C418.443 202.387 424.956 193.337 429.26 183.611C433.564 173.884 435.854 163.411 438.119 153.021C445.165 165.506 449.496 179.334 450.83 193.603C452.265 209.1 450.23 225.361 456.232 239.725C459.204 246.839 464.903 253.624 472.564 254.581C475.984 234.117 478.019 213.445 478.653 192.707C478.793 188.115 478.859 183.46 477.768 178.997C476.807 175.062 474.976 171.399 473.663 167.567C468.545 152.627 471.551 136.3 474.074 120.712C476.597 105.125 478.416 88.3404 471.305 74.2373C467.208 66.1111 459.54 59.15 450.448 58.5401C441.808 57.9605 433.834 63.0266 425.281 64.3837C416.849 65.7217 408.235 63.4007 399.72 64.0253C391.598 64.6446 383.902 67.9017 377.808 73.2989C373.131 77.4653 369.427 83.2042 369.356 89.4618C369.165 106.302 391.763 104.19 403.141 105.484Z" fill="#333333"/>
</g>
<defs>
<linearGradient id="paint0_linear" x1="99.2488" y1="135.859" x2="99.2488" y2="88.6987" gradientUnits="userSpaceOnUse">
<stop stop-color="#808080" stop-opacity="0.25"/>
<stop offset="0.53514" stop-color="#808080" stop-opacity="0.12"/>
<stop offset="1" stop-color="#808080" stop-opacity="0.1"/>
</linearGradient>
<linearGradient id="paint1_linear" x1="8551.74" y1="8794.12" x2="8551.74" y2="6479.09" gradientUnits="userSpaceOnUse">
<stop stop-color="#808080" stop-opacity="0.25"/>
<stop offset="0.53514" stop-color="#808080" stop-opacity="0.12"/>
<stop offset="1" stop-color="#808080" stop-opacity="0.1"/>
</linearGradient>
<linearGradient id="paint2_linear" x1="12379.3" y1="6202.49" x2="12379.3" y2="3887.45" gradientUnits="userSpaceOnUse">
<stop stop-color="#808080" stop-opacity="0.25"/>
<stop offset="0.53514" stop-color="#808080" stop-opacity="0.12"/>
<stop offset="1" stop-color="#808080" stop-opacity="0.1"/>
</linearGradient>
<linearGradient id="paint3_linear" x1="8498.58" y1="2325.31" x2="8498.58" y2="10.2842" gradientUnits="userSpaceOnUse">
<stop stop-color="#808080" stop-opacity="0.25"/>
<stop offset="0.53514" stop-color="#808080" stop-opacity="0.12"/>
<stop offset="1" stop-color="#808080" stop-opacity="0.1"/>
</linearGradient>
<linearGradient id="paint4_linear" x1="4681.61" y1="2315.03" x2="4681.61" y2="0" gradientUnits="userSpaceOnUse">
<stop stop-color="#808080" stop-opacity="0.25"/>
<stop offset="0.53514" stop-color="#808080" stop-opacity="0.12"/>
<stop offset="1" stop-color="#808080" stop-opacity="0.1"/>
</linearGradient>
<linearGradient id="paint5_linear" x1="1236.77" y1="4351.32" x2="1236.77" y2="2036.29" gradientUnits="userSpaceOnUse">
<stop stop-color="#808080" stop-opacity="0.25"/>
<stop offset="0.53514" stop-color="#808080" stop-opacity="0.12"/>
<stop offset="1" stop-color="#808080" stop-opacity="0.1"/>
</linearGradient>
<linearGradient id="paint6_linear" x1="195881" y1="357952" x2="195881" y2="108106" gradientUnits="userSpaceOnUse">
<stop stop-color="#808080" stop-opacity="0.25"/>
<stop offset="0.53514" stop-color="#808080" stop-opacity="0.12"/>
<stop offset="1" stop-color="#808080" stop-opacity="0.1"/>
</linearGradient>
<clipPath id="clip0">
<rect width="562" height="539" fill="white"/>
</clipPath>
</defs>
</svg>
